<?xml version="1.0" standalone="no"?>
<!DOCTYPE svg PUBLIC "-//W3C//DTD SVG 20010904//EN"
 "http://www.w3.org/TR/2001/REC-SVG-20010904/DTD/svg10.dtd">
<svg version="1.0" xmlns="http://www.w3.org/2000/svg"
 width="190.000000pt" height="169.000000pt" viewBox="0 0 190.000000 169.000000"
 preserveAspectRatio="xMidYMid meet">

<g transform="translate(0.000000,169.000000) scale(0.100000,-0.100000)"
fill="#000000" stroke="none">
<path d="M1109 1313 c-1 -5 -1 -10 -1 -13 0 -3 -9 -7 -21 -7 -18 -2 -19 0 -7
8 12 9 12 10 -3 5 -10 -3 -21 -6 -23 -6 -3 0 -2 -5 1 -10 8 -13 -9 -40 -58
-95 -20 -22 -37 -48 -37 -57 0 -10 -3 -17 -7 -17 -5 1 -16 1 -27 0 -15 -1 -16
-4 -6 -16 10 -12 9 -15 -5 -15 -14 0 -15 -3 -6 -14 10 -12 8 -15 -10 -18 -12
-2 -24 -10 -26 -18 -4 -13 -3 -13 6 0 6 9 11 10 11 3 0 -6 -7 -19 -16 -27 -8
-9 -12 -20 -9 -26 3 -5 -3 -10 -13 -10 -13 0 -34 -21 -61 -62 -22 -35 -51 -74
-63 -88 -13 -14 -35 -41 -48 -60 -13 -19 -30 -41 -38 -49 -7 -8 -11 -23 -9
-33 5 -16 3 -17 -9 -7 -14 11 -20 -1 -7 -15 4 -3 8 -12 10 -19 19 -84 26 -106
34 -102 5 4 6 -2 2 -11 -5 -13 -3 -15 7 -9 9 5 11 4 6 -4 -11 -18 49 -105 110
-159 64 -57 189 -125 262 -142 97 -22 179 3 325 98 108 71 175 94 269 96 42 0
74 4 72 8 -15 23 -160 107 -204 118 l-51 12 26 28 c36 37 117 81 189 100 l59
17 -72 26 c-98 37 -191 44 -266 23 -78 -23 -150 -93 -255 -246 -44 -64 -89
-125 -100 -135 -18 -16 -19 -16 -26 21 -11 58 13 184 67 354 68 212 81 271 81
372 0 72 -5 97 -25 142 -14 30 -23 57 -19 60 3 3 2 6 -1 6 -4 0 -8 -3 -8 -7z"/>
<path d="M422 589 c-19 -7 -23 -15 -20 -46 2 -31 8 -39 30 -47 55 -19 93 55
46 88 -25 18 -25 18 -56 5z"/>
<path d="M519 452 c15 -28 131 -134 204 -186 89 -64 226 -130 331 -161 49 -14
93 -25 100 -25 6 0 -61 38 -149 83 -176 91 -230 125 -382 234 -56 40 -104 73
-108 73 -3 0 -1 -8 4 -18z"/>
</g>
</svg>
